<?xml version="1.0" encoding="us-ascii" standalone="no"?><svg xmlns="http://www.w3.org/2000/svg" xmlns:xlink="http://www.w3.org/1999/xlink" contentStyleType="text/css" height="1481px" preserveAspectRatio="none" style="width:969px;height:1481px;background:#FFFFFF;" version="1.1" viewBox="0 0 969 1481" width="969px" zoomAndPan="magnify"><defs/><g><!--cluster BRONZE_DB--><g id="cluster_BRONZE_DB"><path d="M290.5,554.0137 L377.5,554.0137 A3.75,3.75 0 0 1 380,556.5137 L387,578.6348 L575.5,578.6348 A2.5,2.5 0 0 1 578,581.1348 L578,1278.5137 A2.5,2.5 0 0 1 575.5,1281.0137 L290.5,1281.0137 A2.5,2.5 0 0 1 288,1278.5137 L288,556.5137 A2.5,2.5 0 0 1 290.5,554.0137 " fill="none" style="stroke:#000000;stroke-width:1.5;"/><line style="stroke:#000000;stroke-width:1.5;" x1="288" x2="387" y1="578.6348" y2="578.6348"/><text fill="#000000" font-family="sans-serif" font-size="14" font-weight="bold" lengthAdjust="spacing" textLength="86" x="292" y="571.1211">BRONZE_DB</text></g><!--cluster SILVER_DB--><g id="cluster_SILVER_DB"><path d="M216.5,224.0137 L294.5,224.0137 A3.75,3.75 0 0 1 297,226.5137 L304,248.6348 L793.5,248.6348 A2.5,2.5 0 0 1 796,251.1348 L796,527.5137 A2.5,2.5 0 0 1 793.5,530.0137 L216.5,530.0137 A2.5,2.5 0 0 1 214,527.5137 L214,226.5137 A2.5,2.5 0 0 1 216.5,224.0137 " fill="none" style="stroke:#000000;stroke-width:1.5;"/><line style="stroke:#000000;stroke-width:1.5;" x1="214" x2="304" y1="248.6348" y2="248.6348"/><text fill="#000000" font-family="sans-serif" font-size="14" font-weight="bold" lengthAdjust="spacing" textLength="77" x="218" y="241.1211">SILVER_DB</text></g><!--cluster GOLD_DB--><g id="cluster_GOLD_DB"><path d="M23.5,6.0137 L92.5,6.0137 A3.75,3.75 0 0 1 95,8.5137 L102,30.6348 L950.5,30.6348 A2.5,2.5 0 0 1 953,33.1348 L953,197.5137 A2.5,2.5 0 0 1 950.5,200.0137 L23.5,200.0137 A2.5,2.5 0 0 1 21,197.5137 L21,8.5137 A2.5,2.5 0 0 1 23.5,6.0137 " fill="none" style="stroke:#000000;stroke-width:1.5;"/><line style="stroke:#000000;stroke-width:1.5;" x1="21" x2="102" y1="30.6348" y2="30.6348"/><text fill="#000000" font-family="sans-serif" font-size="14" font-weight="bold" lengthAdjust="spacing" textLength="68" x="25" y="23.1211">GOLD_DB</text></g><!--class TRANSACTIONS_TABLE--><g id="elem_TRANSACTIONS_TABLE"><rect codeLine="24" fill="#FFFFFF" height="234.2109" id="TRANSACTIONS_TABLE" rx="2.5" ry="2.5" style="stroke:#181818;stroke-width:0.5;" width="257" x="304.5" y="591.0137"/><ellipse cx="349.75" cy="607.0137" fill="#ADD1B2" rx="11" ry="11" style="stroke:#181818;stroke-width:1.0;"/><path d="M348.6094,607.8105 L348.6094,610.3105 L352.9375,610.3105 L352.9375,609.3887 Q352.9375,608.7793 353.1719,608.5137 Q353.4219,608.248 353.7969,608.248 Q354.1719,608.248 354.4063,608.5137 Q354.6406,608.7793 354.6406,609.3887 L354.6406,612.0137 L346.6406,612.0137 Q346.0156,612.0137 345.75,611.7793 Q345.5,611.5449 345.5,611.1543 Q345.5,610.7793 345.7656,610.5449 Q346.0313,610.3105 346.6406,610.3105 L346.9063,610.3105 L346.9063,603.6543 L346.6406,603.6543 Q346.0156,603.6543 345.75,603.4199 Q345.5,603.1855 345.5,602.7949 Q345.5,602.4199 345.75,602.1855 Q346.0156,601.9512 346.6406,601.9512 L354.2656,601.9512 L354.2656,604.5449 Q354.2656,605.1543 354.0313,605.4199 Q353.8125,605.6699 353.4219,605.6699 Q353.0469,605.6699 352.8125,605.4199 Q352.5781,605.1543 352.5781,604.5449 L352.5781,603.6543 L348.6094,603.6543 L348.6094,606.1074 L350.0938,606.1074 Q350.0938,605.4512 350.2188,605.2637 Q350.4844,604.8574 350.9531,604.8574 Q351.3281,604.8574 351.5625,605.123 Q351.7969,605.373 351.7969,605.9824 L351.7969,607.9512 Q351.7969,608.498 351.6719,608.6855 Q351.4063,609.0762 350.9531,609.0762 Q350.4844,609.0762 350.2188,608.6699 Q350.0938,608.4824 350.0938,607.8105 L348.6094,607.8105 Z " fill="#000000"/><text fill="#000000" font-family="sans-serif" font-size="14" lengthAdjust="spacing" textLength="158" x="370.25" y="612.8105">TRANSACTIONS_TABLE</text><line style="stroke:#181818;stroke-width:0.5;" x1="305.5" x2="560.5" y1="623.0137" y2="623.0137"/><text fill="#000000" font-family="sans-serif" font-size="14" lengthAdjust="spacing" textLength="79" x="310.5" y="642.1211">account: INT</text><text fill="#000000" font-family="sans-serif" font-size="14" lengthAdjust="spacing" textLength="193" x="310.5" y="660.7422">transaction_date: TIMESTAMP</text><text fill="#000000" font-family="sans-serif" font-size="14" lengthAdjust="spacing" textLength="204" x="310.5" y="679.3633">cutoff_date: DATE &#171;Partitioned&#187;</text><line style="stroke:#181818;stroke-width:0.5;" x1="305.5" x2="560.5" y1="686.877" y2="686.877"/><ellipse cx="315.5" cy="701.6875" fill="#000000" rx="3" ry="3" style="stroke:#000000;stroke-width:1.0;"/><text fill="#000000" font-family="sans-serif" font-size="14" lengthAdjust="spacing" textLength="219" x="324.5" y="705.9844">transaction_id: VARCHAR(9) &#171;PK&#187;</text><text fill="#000000" font-family="sans-serif" font-size="14" lengthAdjust="spacing" textLength="199" x="324.5" y="724.6055">account_id: VARCHAR(9) &#171;FK&#187;</text><text fill="#000000" font-family="sans-serif" font-size="14" lengthAdjust="spacing" textLength="205" x="324.5" y="743.2266">transaction_type: VARCHAR(50)</text><text fill="#000000" font-family="sans-serif" font-size="14" lengthAdjust="spacing" textLength="160" x="324.5" y="761.8477">operation: VARCHAR(50)</text><text fill="#000000" font-family="sans-serif" font-size="14" lengthAdjust="spacing" textLength="231" x="324.5" y="780.4688">transaction_amount: DECIMAL(19,8)</text><text fill="#000000" font-family="sans-serif" font-size="14" lengthAdjust="spacing" textLength="156" x="324.5" y="799.0898">balance: DECIMAL(19,8)</text><text fill="#000000" font-family="sans-serif" font-size="14" lengthAdjust="spacing" textLength="139" x="324.5" y="817.7109">bank: VARCHAR(256)</text></g><!--class ACCOUNTS_TABLE--><g id="elem_ACCOUNTS_TABLE"><rect codeLine="37" fill="#FFFFFF" height="159.7266" id="ACCOUNTS_TABLE" rx="2.5" ry="2.5" style="stroke:#181818;stroke-width:0.5;" width="225" x="336.5" y="885.0137"/><ellipse cx="380.75" cy="901.0137" fill="#ADD1B2" rx="11" ry="11" style="stroke:#181818;stroke-width:1.0;"/><path d="M379.6094,901.8105 L379.6094,904.3105 L383.9375,904.3105 L383.9375,903.3887 Q383.9375,902.7793 384.1719,902.5137 Q384.4219,902.248 384.7969,902.248 Q385.1719,902.248 385.4063,902.5137 Q385.6406,902.7793 385.6406,903.3887 L385.6406,906.0137 L377.6406,906.0137 Q377.0156,906.0137 376.75,905.7793 Q376.5,905.5449 376.5,905.1543 Q376.5,904.7793 376.7656,904.5449 Q377.0313,904.3105 377.6406,904.3105 L377.9063,904.3105 L377.9063,897.6543 L377.6406,897.6543 Q377.0156,897.6543 376.75,897.4199 Q376.5,897.1855 376.5,896.7949 Q376.5,896.4199 376.75,896.1855 Q377.0156,895.9512 377.6406,895.9512 L385.2656,895.9512 L385.2656,898.5449 Q385.2656,899.1543 385.0313,899.4199 Q384.8125,899.6699 384.4219,899.6699 Q384.0469,899.6699 383.8125,899.4199 Q383.5781,899.1543 383.5781,898.5449 L383.5781,897.6543 L379.6094,897.6543 L379.6094,900.1074 L381.0938,900.1074 Q381.0938,899.4512 381.2188,899.2637 Q381.4844,898.8574 381.9531,898.8574 Q382.3281,898.8574 382.5625,899.123 Q382.7969,899.373 382.7969,899.9824 L382.7969,901.9512 Q382.7969,902.498 382.6719,902.6855 Q382.4063,903.0762 381.9531,903.0762 Q381.4844,903.0762 381.2188,902.6699 Q381.0938,902.4824 381.0938,901.8105 L379.6094,901.8105 Z " fill="#000000"/><text fill="#000000" font-family="sans-serif" font-size="14" lengthAdjust="spacing" textLength="128" x="401.25" y="906.8105">ACCOUNTS_TABLE</text><line style="stroke:#181818;stroke-width:0.5;" x1="337.5" x2="560.5" y1="917.0137" y2="917.0137"/><text fill="#000000" font-family="sans-serif" font-size="14" lengthAdjust="spacing" textLength="144" x="342.5" y="936.1211">customer_id: INT &#171;FK&#187;</text><text fill="#000000" font-family="sans-serif" font-size="14" lengthAdjust="spacing" textLength="131" x="342.5" y="954.7422">account_date: DATE</text><text fill="#000000" font-family="sans-serif" font-size="14" lengthAdjust="spacing" textLength="204" x="342.5" y="973.3633">cutoff_date: DATE &#171;Partitioned&#187;</text><line style="stroke:#181818;stroke-width:0.5;" x1="337.5" x2="560.5" y1="980.877" y2="980.877"/><ellipse cx="347.5" cy="995.6875" fill="#000000" rx="3" ry="3" style="stroke:#000000;stroke-width:1.0;"/><text fill="#000000" font-family="sans-serif" font-size="14" lengthAdjust="spacing" textLength="199" x="356.5" y="999.9844">account_id: VARCHAR(9) &#171;PK&#187;</text><text fill="#000000" font-family="sans-serif" font-size="14" lengthAdjust="spacing" textLength="193" x="356.5" y="1018.6055">account_type: VARCHAR(100)</text><text fill="#000000" font-family="sans-serif" font-size="14" lengthAdjust="spacing" textLength="156" x="356.5" y="1037.2266">balance: DECIMAL(19,8)</text></g><!--class CUSTOMERS_TABLE--><g id="elem_CUSTOMERS_TABLE"><rect codeLine="46" fill="#FFFFFF" height="159.7266" id="CUSTOMERS_TABLE" rx="2.5" ry="2.5" style="stroke:#181818;stroke-width:0.5;" width="178" x="372" y="1105.0137"/><ellipse cx="390.15" cy="1121.0137" fill="#ADD1B2" rx="11" ry="11" style="stroke:#181818;stroke-width:1.0;"/><path d="M389.0094,1121.8105 L389.0094,1124.3105 L393.3375,1124.3105 L393.3375,1123.3887 Q393.3375,1122.7793 393.5719,1122.5137 Q393.8219,1122.248 394.1969,1122.248 Q394.5719,1122.248 394.8063,1122.5137 Q395.0406,1122.7793 395.0406,1123.3887 L395.0406,1126.0137 L387.0406,1126.0137 Q386.4156,1126.0137 386.15,1125.7793 Q385.9,1125.5449 385.9,1125.1543 Q385.9,1124.7793 386.1656,1124.5449 Q386.4313,1124.3105 387.0406,1124.3105 L387.3063,1124.3105 L387.3063,1117.6543 L387.0406,1117.6543 Q386.4156,1117.6543 386.15,1117.4199 Q385.9,1117.1855 385.9,1116.7949 Q385.9,1116.4199 386.15,1116.1855 Q386.4156,1115.9512 387.0406,1115.9512 L394.6656,1115.9512 L394.6656,1118.5449 Q394.6656,1119.1543 394.4313,1119.4199 Q394.2125,1119.6699 393.8219,1119.6699 Q393.4469,1119.6699 393.2125,1119.4199 Q392.9781,1119.1543 392.9781,1118.5449 L392.9781,1117.6543 L389.0094,1117.6543 L389.0094,1120.1074 L390.4938,1120.1074 Q390.4938,1119.4512 390.6188,1119.2637 Q390.8844,1118.8574 391.3531,1118.8574 Q391.7281,1118.8574 391.9625,1119.123 Q392.1969,1119.373 392.1969,1119.9824 L392.1969,1121.9512 Q392.1969,1122.498 392.0719,1122.6855 Q391.8063,1123.0762 391.3531,1123.0762 Q390.8844,1123.0762 390.6188,1122.6699 Q390.4938,1122.4824 390.4938,1121.8105 L389.0094,1121.8105 Z " fill="#000000"/><text fill="#000000" font-family="sans-serif" font-size="14" lengthAdjust="spacing" textLength="139" x="404.85" y="1126.8105">CUSTOMERS_TABLE</text><line style="stroke:#181818;stroke-width:0.5;" x1="373" x2="549" y1="1137.0137" y2="1137.0137"/><ellipse cx="383" cy="1151.8242" fill="#000000" rx="3" ry="3" style="stroke:#000000;stroke-width:1.0;"/><text fill="#000000" font-family="sans-serif" font-size="14" lengthAdjust="spacing" textLength="144" x="392" y="1156.1211">customer_id: INT &#171;PK&#187;</text><text fill="#000000" font-family="sans-serif" font-size="14" lengthAdjust="spacing" textLength="53" x="392" y="1174.7422">age: INT</text><text fill="#000000" font-family="sans-serif" font-size="14" lengthAdjust="spacing" textLength="152" x="392" y="1193.3633">registration_date: DATE</text><line style="stroke:#181818;stroke-width:0.5;" x1="373" x2="549" y1="1200.877" y2="1200.877"/><text fill="#000000" font-family="sans-serif" font-size="14" lengthAdjust="spacing" textLength="143" x="378" y="1219.9844">name: VARCHAR(100)</text><text fill="#000000" font-family="sans-serif" font-size="14" lengthAdjust="spacing" textLength="129" x="378" y="1238.6055">city: VARCHAR(100)</text><text fill="#000000" font-family="sans-serif" font-size="14" lengthAdjust="spacing" textLength="130" x="378" y="1257.2266">status: VARCHAR(1)</text></g><!--class FACT_TABLE--><g id="elem_FACT_TABLE"><rect codeLine="57" fill="#FFFFFF" height="252.832" id="FACT_TABLE" rx="2.5" ry="2.5" style="stroke:#181818;stroke-width:0.5;" width="257" x="522.5" y="261.0137"/><ellipse cx="602.25" cy="277.0137" fill="#ADD1B2" rx="11" ry="11" style="stroke:#181818;stroke-width:1.0;"/><path d="M601.1094,277.8105 L601.1094,280.3105 L605.4375,280.3105 L605.4375,279.3887 Q605.4375,278.7793 605.6719,278.5137 Q605.9219,278.248 606.2969,278.248 Q606.6719,278.248 606.9063,278.5137 Q607.1406,278.7793 607.1406,279.3887 L607.1406,282.0137 L599.1406,282.0137 Q598.5156,282.0137 598.25,281.7793 Q598,281.5449 598,281.1543 Q598,280.7793 598.2656,280.5449 Q598.5313,280.3105 599.1406,280.3105 L599.4063,280.3105 L599.4063,273.6543 L599.1406,273.6543 Q598.5156,273.6543 598.25,273.4199 Q598,273.1855 598,272.7949 Q598,272.4199 598.25,272.1855 Q598.5156,271.9512 599.1406,271.9512 L606.7656,271.9512 L606.7656,274.5449 Q606.7656,275.1543 606.5313,275.4199 Q606.3125,275.6699 605.9219,275.6699 Q605.5469,275.6699 605.3125,275.4199 Q605.0781,275.1543 605.0781,274.5449 L605.0781,273.6543 L601.1094,273.6543 L601.1094,276.1074 L602.5938,276.1074 Q602.5938,275.4512 602.7188,275.2637 Q602.9844,274.8574 603.4531,274.8574 Q603.8281,274.8574 604.0625,275.123 Q604.2969,275.373 604.2969,275.9824 L604.2969,277.9512 Q604.2969,278.498 604.1719,278.6855 Q603.9063,279.0762 603.4531,279.0762 Q602.9844,279.0762 602.7188,278.6699 Q602.5938,278.4824 602.5938,277.8105 L601.1094,277.8105 Z " fill="#000000"/><text fill="#000000" font-family="sans-serif" font-size="14" lengthAdjust="spacing" textLength="89" x="622.75" y="282.8105">FACT_TABLE</text><line style="stroke:#181818;stroke-width:0.5;" x1="523.5" x2="778.5" y1="293.0137" y2="293.0137"/><text fill="#000000" font-family="sans-serif" font-size="14" lengthAdjust="spacing" textLength="144" x="528.5" y="312.1211">customer_id: INT &#171;FK&#187;</text><text fill="#000000" font-family="sans-serif" font-size="14" lengthAdjust="spacing" textLength="193" x="528.5" y="330.7422">transaction_date: TIMESTAMP</text><text fill="#000000" font-family="sans-serif" font-size="14" lengthAdjust="spacing" textLength="152" x="528.5" y="349.3633">registration_date: DATE</text><text fill="#000000" font-family="sans-serif" font-size="14" lengthAdjust="spacing" textLength="204" x="528.5" y="367.9844">cutoff_date: DATE &#171;Partitioned&#187;</text><line style="stroke:#181818;stroke-width:0.5;" x1="523.5" x2="778.5" y1="375.498" y2="375.498"/><ellipse cx="533.5" cy="390.3086" fill="#000000" rx="3" ry="3" style="stroke:#000000;stroke-width:1.0;"/><text fill="#000000" font-family="sans-serif" font-size="14" lengthAdjust="spacing" textLength="219" x="542.5" y="394.6055">transaction_id: VARCHAR(9) &#171;PK&#187;</text><text fill="#000000" font-family="sans-serif" font-size="14" lengthAdjust="spacing" textLength="199" x="542.5" y="413.2266">account_id: VARCHAR(9) &#171;FK&#187;</text><text fill="#000000" font-family="sans-serif" font-size="14" lengthAdjust="spacing" textLength="143" x="542.5" y="431.8477">name: VARCHAR(100)</text><text fill="#000000" font-family="sans-serif" font-size="14" lengthAdjust="spacing" textLength="231" x="542.5" y="450.4688">transaction_amount: DECIMAL(19,8)</text><text fill="#000000" font-family="sans-serif" font-size="14" lengthAdjust="spacing" textLength="205" x="542.5" y="469.0898">transaction_type: VARCHAR(50)</text><text fill="#000000" font-family="sans-serif" font-size="14" lengthAdjust="spacing" textLength="193" x="542.5" y="487.7109">account_type: VARCHAR(100)</text><text fill="#000000" font-family="sans-serif" font-size="14" lengthAdjust="spacing" textLength="156" x="542.5" y="506.332">balance: DECIMAL(19,8)</text></g><!--class LARGE_TRANSACTIONS_TABLE--><g id="elem_LARGE_TRANSACTIONS_TABLE"><rect codeLine="71" fill="#FFFFFF" height="252.832" id="LARGE_TRANSACTIONS_TABLE" rx="2.5" ry="2.5" style="stroke:#181818;stroke-width:0.5;" width="257" x="230.5" y="261.0137"/><ellipse cx="250.9" cy="277.0137" fill="#ADD1B2" rx="11" ry="11" style="stroke:#181818;stroke-width:1.0;"/><path d="M249.7594,277.8105 L249.7594,280.3105 L254.0875,280.3105 L254.0875,279.3887 Q254.0875,278.7793 254.3219,278.5137 Q254.5719,278.248 254.9469,278.248 Q255.3219,278.248 255.5563,278.5137 Q255.7906,278.7793 255.7906,279.3887 L255.7906,282.0137 L247.7906,282.0137 Q247.1656,282.0137 246.9,281.7793 Q246.65,281.5449 246.65,281.1543 Q246.65,280.7793 246.9156,280.5449 Q247.1813,280.3105 247.7906,280.3105 L248.0563,280.3105 L248.0563,273.6543 L247.7906,273.6543 Q247.1656,273.6543 246.9,273.4199 Q246.65,273.1855 246.65,272.7949 Q246.65,272.4199 246.9,272.1855 Q247.1656,271.9512 247.7906,271.9512 L255.4156,271.9512 L255.4156,274.5449 Q255.4156,275.1543 255.1813,275.4199 Q254.9625,275.6699 254.5719,275.6699 Q254.1969,275.6699 253.9625,275.4199 Q253.7281,275.1543 253.7281,274.5449 L253.7281,273.6543 L249.7594,273.6543 L249.7594,276.1074 L251.2438,276.1074 Q251.2438,275.4512 251.3688,275.2637 Q251.6344,274.8574 252.1031,274.8574 Q252.4781,274.8574 252.7125,275.123 Q252.9469,275.373 252.9469,275.9824 L252.9469,277.9512 Q252.9469,278.498 252.8219,278.6855 Q252.5563,279.0762 252.1031,279.0762 Q251.6344,279.0762 251.3688,278.6699 Q251.2438,278.4824 251.2438,277.8105 L249.7594,277.8105 Z " fill="#000000"/><text fill="#000000" font-family="sans-serif" font-size="14" lengthAdjust="spacing" textLength="213" x="266.1" y="282.8105">LARGE_TRANSACTIONS_TABLE</text><line style="stroke:#181818;stroke-width:0.5;" x1="231.5" x2="486.5" y1="293.0137" y2="293.0137"/><text fill="#000000" font-family="sans-serif" font-size="14" lengthAdjust="spacing" textLength="79" x="236.5" y="312.1211">account: INT</text><text fill="#000000" font-family="sans-serif" font-size="14" lengthAdjust="spacing" textLength="193" x="236.5" y="330.7422">transaction_date: TIMESTAMP</text><text fill="#000000" font-family="sans-serif" font-size="14" lengthAdjust="spacing" textLength="204" x="236.5" y="349.3633">cutoff_date: DATE &#171;Partitioned&#187;</text><line style="stroke:#181818;stroke-width:0.5;" x1="231.5" x2="486.5" y1="356.877" y2="356.877"/><ellipse cx="241.5" cy="371.6875" fill="#000000" rx="3" ry="3" style="stroke:#000000;stroke-width:1.0;"/><text fill="#000000" font-family="sans-serif" font-size="14" lengthAdjust="spacing" textLength="219" x="250.5" y="375.9844">transaction_id: VARCHAR(9) &#171;PK&#187;</text><text fill="#000000" font-family="sans-serif" font-size="14" lengthAdjust="spacing" textLength="199" x="250.5" y="394.6055">account_id: VARCHAR(9) &#171;FK&#187;</text><text fill="#000000" font-family="sans-serif" font-size="14" lengthAdjust="spacing" textLength="205" x="250.5" y="413.2266">transaction_type: VARCHAR(50)</text><text fill="#000000" font-family="sans-serif" font-size="14" lengthAdjust="spacing" textLength="160" x="250.5" y="431.8477">operation: VARCHAR(50)</text><text fill="#000000" font-family="sans-serif" font-size="14" lengthAdjust="spacing" textLength="156" x="250.5" y="450.4688">balance: DECIMAL(19,8)</text><text fill="#000000" font-family="sans-serif" font-size="14" lengthAdjust="spacing" textLength="139" x="250.5" y="469.0898">bank: VARCHAR(256)</text><text fill="#000000" font-family="sans-serif" font-size="14" lengthAdjust="spacing" textLength="220" x="250.5" y="487.7109">is_large_transaction: VARCHAR(9)</text><text fill="#000000" font-family="sans-serif" font-size="14" lengthAdjust="spacing" textLength="231" x="250.5" y="506.332">transaction_amount: DECIMAL(19,8)</text></g><!--class ACCOUNT_MASTER_TABLE--><g id="elem_ACCOUNT_MASTER_TABLE"><rect codeLine="87" fill="#FFFFFF" height="141.1055" id="ACCOUNT_MASTER_TABLE" rx="2.5" ry="2.5" style="stroke:#181818;stroke-width:0.5;" width="260" x="677" y="43.0137"/><ellipse cx="711.8" cy="59.0137" fill="#ADD1B2" rx="11" ry="11" style="stroke:#181818;stroke-width:1.0;"/><path d="M710.6594,59.8105 L710.6594,62.3105 L714.9875,62.3105 L714.9875,61.3887 Q714.9875,60.7793 715.2219,60.5137 Q715.4719,60.248 715.8469,60.248 Q716.2219,60.248 716.4563,60.5137 Q716.6906,60.7793 716.6906,61.3887 L716.6906,64.0137 L708.6906,64.0137 Q708.0656,64.0137 707.8,63.7793 Q707.55,63.5449 707.55,63.1543 Q707.55,62.7793 707.8156,62.5449 Q708.0813,62.3105 708.6906,62.3105 L708.9563,62.3105 L708.9563,55.6543 L708.6906,55.6543 Q708.0656,55.6543 707.8,55.4199 Q707.55,55.1855 707.55,54.7949 Q707.55,54.4199 707.8,54.1855 Q708.0656,53.9512 708.6906,53.9512 L716.3156,53.9512 L716.3156,56.5449 Q716.3156,57.1543 716.0813,57.4199 Q715.8625,57.6699 715.4719,57.6699 Q715.0969,57.6699 714.8625,57.4199 Q714.6281,57.1543 714.6281,56.5449 L714.6281,55.6543 L710.6594,55.6543 L710.6594,58.1074 L712.1438,58.1074 Q712.1438,57.4512 712.2688,57.2637 Q712.5344,56.8574 713.0031,56.8574 Q713.3781,56.8574 713.6125,57.123 Q713.8469,57.373 713.8469,57.9824 L713.8469,59.9512 Q713.8469,60.498 713.7219,60.6855 Q713.4563,61.0762 713.0031,61.0762 Q712.5344,61.0762 712.2688,60.6699 Q712.1438,60.4824 712.1438,59.8105 L710.6594,59.8105 Z " fill="#000000"/><text fill="#000000" font-family="sans-serif" font-size="14" lengthAdjust="spacing" textLength="184" x="730.2" y="64.8105">ACCOUNT_MASTER_TABLE</text><line style="stroke:#181818;stroke-width:0.5;" x1="678" x2="936" y1="75.0137" y2="75.0137"/><text fill="#000000" font-family="sans-serif" font-size="14" lengthAdjust="spacing" textLength="144" x="683" y="94.1211">customer_id: INT &#171;FK&#187;</text><text fill="#000000" font-family="sans-serif" font-size="14" lengthAdjust="spacing" textLength="204" x="683" y="112.7422">cutoff_date: DATE &#171;Partitioned&#187;</text><line style="stroke:#181818;stroke-width:0.5;" x1="678" x2="936" y1="120.2559" y2="120.2559"/><ellipse cx="688" cy="135.0664" fill="#000000" rx="3" ry="3" style="stroke:#000000;stroke-width:1.0;"/><text fill="#000000" font-family="sans-serif" font-size="14" lengthAdjust="spacing" textLength="199" x="697" y="139.3633">account_id: VARCHAR(9) &#171;PK&#187;</text><text fill="#000000" font-family="sans-serif" font-size="14" lengthAdjust="spacing" textLength="225" x="697" y="157.9844">porc_use_balance: VARCHAR(100)</text><text fill="#000000" font-family="sans-serif" font-size="14" lengthAdjust="spacing" textLength="234" x="697" y="176.6055">range_use_balance: VARCHAR(100)</text></g><!--class TOP_YEARLY_ACCOUNT_TABLE--><g id="elem_TOP_YEARLY_ACCOUNT_TABLE"><rect codeLine="95" fill="#FFFFFF" height="122.4844" id="TOP_YEARLY_ACCOUNT_TABLE" rx="2.5" ry="2.5" style="stroke:#181818;stroke-width:0.5;" width="292" x="350" y="52.5137"/><ellipse cx="383.9" cy="68.5137" fill="#ADD1B2" rx="11" ry="11" style="stroke:#181818;stroke-width:1.0;"/><path d="M382.7594,69.3105 L382.7594,71.8105 L387.0875,71.8105 L387.0875,70.8887 Q387.0875,70.2793 387.3219,70.0137 Q387.5719,69.748 387.9469,69.748 Q388.3219,69.748 388.5563,70.0137 Q388.7906,70.2793 388.7906,70.8887 L388.7906,73.5137 L380.7906,73.5137 Q380.1656,73.5137 379.9,73.2793 Q379.65,73.0449 379.65,72.6543 Q379.65,72.2793 379.9156,72.0449 Q380.1813,71.8105 380.7906,71.8105 L381.0563,71.8105 L381.0563,65.1543 L380.7906,65.1543 Q380.1656,65.1543 379.9,64.9199 Q379.65,64.6855 379.65,64.2949 Q379.65,63.9199 379.9,63.6855 Q380.1656,63.4512 380.7906,63.4512 L388.4156,63.4512 L388.4156,66.0449 Q388.4156,66.6543 388.1813,66.9199 Q387.9625,67.1699 387.5719,67.1699 Q387.1969,67.1699 386.9625,66.9199 Q386.7281,66.6543 386.7281,66.0449 L386.7281,65.1543 L382.7594,65.1543 L382.7594,67.6074 L384.2438,67.6074 Q384.2438,66.9512 384.3688,66.7637 Q384.6344,66.3574 385.1031,66.3574 Q385.4781,66.3574 385.7125,66.623 Q385.9469,66.873 385.9469,67.4824 L385.9469,69.4512 Q385.9469,69.998 385.8219,70.1855 Q385.5563,70.5762 385.1031,70.5762 Q384.6344,70.5762 384.3688,70.1699 Q384.2438,69.9824 384.2438,69.3105 L382.7594,69.3105 Z " fill="#000000"/><text fill="#000000" font-family="sans-serif" font-size="14" lengthAdjust="spacing" textLength="218" x="402.1" y="74.3105">TOP_YEARLY_ACCOUNT_TABLE</text><line style="stroke:#181818;stroke-width:0.5;" x1="351" x2="641" y1="84.5137" y2="84.5137"/><text fill="#000000" font-family="sans-serif" font-size="14" lengthAdjust="spacing" textLength="57" x="356" y="103.6211">rank: INT</text><line style="stroke:#181818;stroke-width:0.5;" x1="351" x2="641" y1="111.1348" y2="111.1348"/><ellipse cx="361" cy="125.9453" fill="#000000" rx="3" ry="3" style="stroke:#000000;stroke-width:1.0;"/><text fill="#000000" font-family="sans-serif" font-size="14" lengthAdjust="spacing" textLength="199" x="370" y="130.2422">account_id: VARCHAR(9) &#171;PK&#187;</text><text fill="#000000" font-family="sans-serif" font-size="14" lengthAdjust="spacing" textLength="266" x="370" y="148.8633">total_transaction_amount: DECIMAL(19,8)</text><text fill="#000000" font-family="sans-serif" font-size="14" lengthAdjust="spacing" textLength="205" x="370" y="167.4844">transaction_type: VARCHAR(50)</text></g><!--class TOP_MONTHLY_TABLE--><g id="elem_TOP_MONTHLY_TABLE"><rect codeLine="102" fill="#FFFFFF" height="141.1055" id="TOP_MONTHLY_TABLE" rx="2.5" ry="2.5" style="stroke:#181818;stroke-width:0.5;" width="278" x="37" y="43.0137"/><ellipse cx="94.25" cy="59.0137" fill="#ADD1B2" rx="11" ry="11" style="stroke:#181818;stroke-width:1.0;"/><path d="M93.1094,59.8105 L93.1094,62.3105 L97.4375,62.3105 L97.4375,61.3887 Q97.4375,60.7793 97.6719,60.5137 Q97.9219,60.248 98.2969,60.248 Q98.6719,60.248 98.9063,60.5137 Q99.1406,60.7793 99.1406,61.3887 L99.1406,64.0137 L91.1406,64.0137 Q90.5156,64.0137 90.25,63.7793 Q90,63.5449 90,63.1543 Q90,62.7793 90.2656,62.5449 Q90.5313,62.3105 91.1406,62.3105 L91.4063,62.3105 L91.4063,55.6543 L91.1406,55.6543 Q90.5156,55.6543 90.25,55.4199 Q90,55.1855 90,54.7949 Q90,54.4199 90.25,54.1855 Q90.5156,53.9512 91.1406,53.9512 L98.7656,53.9512 L98.7656,56.5449 Q98.7656,57.1543 98.5313,57.4199 Q98.3125,57.6699 97.9219,57.6699 Q97.5469,57.6699 97.3125,57.4199 Q97.0781,57.1543 97.0781,56.5449 L97.0781,55.6543 L93.1094,55.6543 L93.1094,58.1074 L94.5938,58.1074 Q94.5938,57.4512 94.7188,57.2637 Q94.9844,56.8574 95.4531,56.8574 Q95.8281,56.8574 96.0625,57.123 Q96.2969,57.373 96.2969,57.9824 L96.2969,59.9512 Q96.2969,60.498 96.1719,60.6855 Q95.9063,61.0762 95.4531,61.0762 Q94.9844,61.0762 94.7188,60.6699 Q94.5938,60.4824 94.5938,59.8105 L93.1094,59.8105 Z " fill="#000000"/><text fill="#000000" font-family="sans-serif" font-size="14" lengthAdjust="spacing" textLength="155" x="114.75" y="64.8105">TOP_MONTHLY_TABLE</text><line style="stroke:#181818;stroke-width:0.5;" x1="38" x2="314" y1="75.0137" y2="75.0137"/><ellipse cx="48" cy="89.8242" fill="#000000" rx="3" ry="3" style="stroke:#000000;stroke-width:1.0;"/><text fill="#000000" font-family="sans-serif" font-size="14" lengthAdjust="spacing" textLength="144" x="57" y="94.1211">customer_id: INT &#171;PK&#187;</text><text fill="#000000" font-family="sans-serif" font-size="14" lengthAdjust="spacing" textLength="57" x="57" y="112.7422">rank: INT</text><line style="stroke:#181818;stroke-width:0.5;" x1="38" x2="314" y1="120.2559" y2="120.2559"/><text fill="#000000" font-family="sans-serif" font-size="14" lengthAdjust="spacing" textLength="193" x="43" y="139.3633">account_type: VARCHAR(100)</text><text fill="#000000" font-family="sans-serif" font-size="14" lengthAdjust="spacing" textLength="266" x="43" y="157.9844">total_transaction_amount: DECIMAL(19,8)</text><text fill="#000000" font-family="sans-serif" font-size="14" lengthAdjust="spacing" textLength="262" x="43" y="176.6055">avg_transaction_amount: DECIMAL(19,8)</text></g><!--reverse link TRANSACTIONS_TABLE to ACCOUNTS_TABLE--><g id="link_TRANSACTIONS_TABLE_ACCOUNTS_TABLE"><path codeLine="112" d="M449,833.2337 C449,853.3537 449,865.8537 449,884.7237 " fill="none" id="TRANSACTIONS_TABLE-backto-ACCOUNTS_TABLE" style="stroke:#181818;stroke-width:1.0;"/><line style="stroke:#181818;stroke-width:1.0;" x1="449" x2="443" y1="833.2337" y2="825.2337"/><line style="stroke:#181818;stroke-width:1.0;" x1="449" x2="455" y1="833.2337" y2="825.2337"/><line style="stroke:#181818;stroke-width:1.0;" x1="449" x2="449" y1="833.2337" y2="825.2337"/><line style="stroke:#181818;stroke-width:1.0;" x1="445" x2="453" y1="835.2337" y2="835.2337"/><text fill="#000000" font-family="sans-serif" font-size="13" lengthAdjust="spacing" textLength="63" x="385" y="851.002">account_id</text></g><!--reverse link ACCOUNTS_TABLE to CUSTOMERS_TABLE--><g id="link_ACCOUNTS_TABLE_CUSTOMERS_TABLE"><path codeLine="113" d="M461,1053.0637 C461,1072.4737 461,1085.2337 461,1104.6537 " fill="none" id="ACCOUNTS_TABLE-backto-CUSTOMERS_TABLE" style="stroke:#181818;stroke-width:1.0;"/><line style="stroke:#181818;stroke-width:1.0;" x1="461" x2="455" y1="1053.0637" y2="1045.0637"/><line style="stroke:#181818;stroke-width:1.0;" x1="461" x2="467" y1="1053.0637" y2="1045.0637"/><line style="stroke:#181818;stroke-width:1.0;" x1="461" x2="461" y1="1053.0637" y2="1045.0637"/><line style="stroke:#181818;stroke-width:1.0;" x1="457" x2="465" y1="1055.0637" y2="1055.0637"/><text fill="#000000" font-family="sans-serif" font-size="13" lengthAdjust="spacing" textLength="71" x="389" y="1070.892">customer_id</text></g><!--reverse link FACT_TABLE to TRANSACTIONS_TABLE--><g id="link_FACT_TABLE_TRANSACTIONS_TABLE"><path codeLine="115" d="M542,522.1837 C542,547.4637 542,565.9137 542,590.8637 " fill="none" id="FACT_TABLE-backto-TRANSACTIONS_TABLE" style="stroke:#181818;stroke-width:1.0;"/><line style="stroke:#181818;stroke-width:1.0;" x1="538" x2="546" y1="518.1837" y2="518.1837"/><line style="stroke:#181818;stroke-width:1.0;" x1="538" x2="546" y1="521.1837" y2="521.1837"/><line style="stroke:#181818;stroke-width:1.0;" x1="542" x2="542" y1="522.1837" y2="514.1837"/><text fill="#000000" font-family="sans-serif" font-size="13" lengthAdjust="spacing" textLength="81" x="460" y="548.552">transaction_id</text></g><!--reverse link FACT_TABLE to ACCOUNTS_TABLE--><g id="link_FACT_TABLE_ACCOUNTS_TABLE"><path codeLine="116" d="M634.17,522.2437 C634.17,692.2437 634.17,965.0137 634.17,965.0137 C634.17,965.0137 600.29,965.0137 561.52,965.0137 " fill="none" id="FACT_TABLE-backto-ACCOUNTS_TABLE" style="stroke:#181818;stroke-width:1.0;"/><line style="stroke:#181818;stroke-width:1.0;" x1="634.17" x2="628.17" y1="522.2437" y2="514.2437"/><line style="stroke:#181818;stroke-width:1.0;" x1="634.17" x2="640.17" y1="522.2437" y2="514.2437"/><line style="stroke:#181818;stroke-width:1.0;" x1="634.17" x2="634.17" y1="522.2437" y2="514.2437"/><line style="stroke:#181818;stroke-width:1.0;" x1="630.17" x2="638.17" y1="524.2437" y2="524.2437"/><text fill="#000000" font-family="sans-serif" font-size="13" lengthAdjust="spacing" textLength="63" x="570.17" y="771.982">account_id</text></g><!--reverse link FACT_TABLE to CUSTOMERS_TABLE--><g id="link_FACT_TABLE_CUSTOMERS_TABLE"><path codeLine="117" d="M706.83,522.3237 C706.83,747.3337 706.83,1185.0137 706.83,1185.0137 C706.83,1185.0137 620.45,1185.0137 550.1,1185.0137 " fill="none" id="FACT_TABLE-backto-CUSTOMERS_TABLE" style="stroke:#181818;stroke-width:1.0;"/><line style="stroke:#181818;stroke-width:1.0;" x1="706.83" x2="700.83" y1="522.3237" y2="514.3237"/><line style="stroke:#181818;stroke-width:1.0;" x1="706.83" x2="712.83" y1="522.3237" y2="514.3237"/><line style="stroke:#181818;stroke-width:1.0;" x1="706.83" x2="706.83" y1="522.3237" y2="514.3237"/><line style="stroke:#181818;stroke-width:1.0;" x1="702.83" x2="710.83" y1="524.3237" y2="524.3237"/><text fill="#000000" font-family="sans-serif" font-size="13" lengthAdjust="spacing" textLength="71" x="634.83" y="924.062">customer_id</text></g><!--reverse link LARGE_TRANSACTIONS_TABLE to TRANSACTIONS_TABLE--><g id="link_LARGE_TRANSACTIONS_TABLE_TRANSACTIONS_TABLE"><path codeLine="119" d="M396,522.1837 C396,547.4637 396,565.9137 396,590.8637 " fill="none" id="LARGE_TRANSACTIONS_TABLE-backto-TRANSACTIONS_TABLE" style="stroke:#181818;stroke-width:1.0;"/><line style="stroke:#181818;stroke-width:1.0;" x1="392" x2="400" y1="518.1837" y2="518.1837"/><line style="stroke:#181818;stroke-width:1.0;" x1="392" x2="400" y1="521.1837" y2="521.1837"/><line style="stroke:#181818;stroke-width:1.0;" x1="396" x2="396" y1="522.1837" y2="514.1837"/><text fill="#000000" font-family="sans-serif" font-size="13" lengthAdjust="spacing" textLength="81" x="314" y="548.552">transaction_id</text></g><!--link ACCOUNT_MASTER_TABLE to FACT_TABLE--><g id="link_ACCOUNT_MASTER_TABLE_FACT_TABLE"><path codeLine="121" d="M711.17,192.0737 C711.17,215.5437 711.17,226.4437 711.17,252.8237 " fill="none" id="ACCOUNT_MASTER_TABLE-FACT_TABLE" style="stroke:#181818;stroke-width:1.0;"/><line style="stroke:#181818;stroke-width:1.0;" x1="707.17" x2="715.17" y1="188.0737" y2="188.0737"/><line style="stroke:#181818;stroke-width:1.0;" x1="707.17" x2="715.17" y1="191.0737" y2="191.0737"/><line style="stroke:#181818;stroke-width:1.0;" x1="711.17" x2="711.17" y1="192.0737" y2="184.0737"/><line style="stroke:#181818;stroke-width:1.0;" x1="711.17" x2="717.17" y1="252.8237" y2="260.8237"/><line style="stroke:#181818;stroke-width:1.0;" x1="711.17" x2="705.17" y1="252.8237" y2="260.8237"/><line style="stroke:#181818;stroke-width:1.0;" x1="711.17" x2="711.17" y1="252.8237" y2="260.8237"/><line style="stroke:#181818;stroke-width:1.0;" x1="715.17" x2="707.17" y1="250.8237" y2="250.8237"/><text fill="#000000" font-family="sans-serif" font-size="13" lengthAdjust="spacing" textLength="63" x="647.17" y="218.482">account_id</text></g><!--link ACCOUNT_MASTER_TABLE to FACT_TABLE--><g id="link_ACCOUNT_MASTER_TABLE_FACT_TABLE"><path codeLine="122" d="M745.33,192.0737 C745.33,215.5437 745.33,226.4437 745.33,252.8237 " fill="none" id="ACCOUNT_MASTER_TABLE-FACT_TABLE-1" style="stroke:#181818;stroke-width:1.0;"/><line style="stroke:#181818;stroke-width:1.0;" x1="741.33" x2="749.33" y1="188.0737" y2="188.0737"/><line style="stroke:#181818;stroke-width:1.0;" x1="741.33" x2="749.33" y1="191.0737" y2="191.0737"/><line style="stroke:#181818;stroke-width:1.0;" x1="745.33" x2="745.33" y1="192.0737" y2="184.0737"/><line style="stroke:#181818;stroke-width:1.0;" x1="745.33" x2="751.33" y1="252.8237" y2="260.8237"/><line style="stroke:#181818;stroke-width:1.0;" x1="745.33" x2="739.33" y1="252.8237" y2="260.8237"/><line style="stroke:#181818;stroke-width:1.0;" x1="745.33" x2="745.33" y1="252.8237" y2="260.8237"/><line style="stroke:#181818;stroke-width:1.0;" x1="749.33" x2="741.33" y1="250.8237" y2="250.8237"/><text fill="#000000" font-family="sans-serif" font-size="13" lengthAdjust="spacing" textLength="71" x="673.33" y="237.482">customer_id</text></g><!--link TOP_YEARLY_ACCOUNT_TABLE to FACT_TABLE--><g id="link_TOP_YEARLY_ACCOUNT_TABLE_FACT_TABLE"><path codeLine="124" d="M602.17,182.6637 C602.17,208.2137 602.17,222.9037 602.17,252.9237 " fill="none" id="TOP_YEARLY_ACCOUNT_TABLE-FACT_TABLE" style="stroke:#181818;stroke-width:1.0;"/><line style="stroke:#181818;stroke-width:1.0;" x1="598.17" x2="606.17" y1="178.6637" y2="178.6637"/><line style="stroke:#181818;stroke-width:1.0;" x1="598.17" x2="606.17" y1="181.6637" y2="181.6637"/><line style="stroke:#181818;stroke-width:1.0;" x1="602.17" x2="602.17" y1="182.6637" y2="174.6637"/><line style="stroke:#181818;stroke-width:1.0;" x1="602.17" x2="608.17" y1="252.9237" y2="260.9237"/><line style="stroke:#181818;stroke-width:1.0;" x1="602.17" x2="596.17" y1="252.9237" y2="260.9237"/><line style="stroke:#181818;stroke-width:1.0;" x1="602.17" x2="602.17" y1="252.9237" y2="260.9237"/><line style="stroke:#181818;stroke-width:1.0;" x1="606.17" x2="598.17" y1="250.9237" y2="250.9237"/><text fill="#000000" font-family="sans-serif" font-size="13" lengthAdjust="spacing" textLength="63" x="538.17" y="213.822">account_id</text></g><!--link TOP_MONTHLY_TABLE to FACT_TABLE--><g id="link_TOP_MONTHLY_TABLE_FACT_TABLE"><path codeLine="125" d="M323.2,180.0137 C433.91,180.0137 562.33,180.0137 562.33,180.0137 C562.33,180.0137 562.33,209.6337 562.33,252.8337 " fill="none" id="TOP_MONTHLY_TABLE-FACT_TABLE" style="stroke:#181818;stroke-width:1.0;"/><line style="stroke:#181818;stroke-width:1.0;" x1="319.2" x2="319.2" y1="184.0137" y2="176.0137"/><line style="stroke:#181818;stroke-width:1.0;" x1="322.2" x2="322.2" y1="184.0137" y2="176.0137"/><line style="stroke:#181818;stroke-width:1.0;" x1="323.2" x2="315.2" y1="180.0137" y2="180.0137"/><line style="stroke:#181818;stroke-width:1.0;" x1="562.33" x2="568.33" y1="252.8337" y2="260.8337"/><line style="stroke:#181818;stroke-width:1.0;" x1="562.33" x2="556.33" y1="252.8337" y2="260.8337"/><line style="stroke:#181818;stroke-width:1.0;" x1="562.33" x2="562.33" y1="252.8337" y2="260.8337"/><line style="stroke:#181818;stroke-width:1.0;" x1="566.33" x2="558.33" y1="250.8337" y2="250.8337"/><text fill="#000000" font-family="sans-serif" font-size="13" lengthAdjust="spacing" textLength="71" x="407.18" y="195.042">customer_id</text></g><rect fill="#DDDDDD" height="162.9688" id="_legend" rx="7.5" ry="7.5" style="stroke:#000000;stroke-width:1.0;" width="937" x="12" y="1299.0137"/><text fill="#000000" font-family="sans-serif" font-size="14" lengthAdjust="spacing" textLength="4" x="17" y="1321.1211">&#160;</text><text fill="#000000" font-family="sans-serif" font-size="14" font-weight="bold" lengthAdjust="spacing" textLength="137" x="21" y="1321.1211">ER Diagram Legend</text><text fill="#000000" font-family="sans-serif" font-size="14" lengthAdjust="spacing" textLength="4" x="158" y="1321.1211">&#160;</text><text fill="#000000" font-family="sans-serif" font-size="14" lengthAdjust="spacing" textLength="71" x="197" y="1321.1211">Description</text><text fill="#000000" font-family="sans-serif" font-size="14" lengthAdjust="spacing" textLength="4" x="17" y="1339.7422">&#160;</text><text fill="#000000" font-family="sans-serif" font-size="14" font-weight="bold" lengthAdjust="spacing" textLength="82" x="21" y="1339.7422">Primary Key</text><text fill="#000000" font-family="sans-serif" font-size="14" lengthAdjust="spacing" textLength="28" x="107" y="1339.7422">(PK)</text><text fill="#000000" font-family="sans-serif" font-size="14" lengthAdjust="spacing" textLength="246" x="197" y="1339.7422">Unique identifier for each row in a table</text><text fill="#000000" font-family="sans-serif" font-size="14" lengthAdjust="spacing" textLength="4" x="17" y="1358.3633">&#160;</text><text fill="#000000" font-family="sans-serif" font-size="14" font-weight="bold" lengthAdjust="spacing" textLength="85" x="21" y="1358.3633">Foreign Key</text><text fill="#000000" font-family="sans-serif" font-size="14" lengthAdjust="spacing" textLength="28" x="110" y="1358.3633">(FK)</text><text fill="#000000" font-family="sans-serif" font-size="14" lengthAdjust="spacing" textLength="265" x="197" y="1358.3633">References a primary key in another table</text><text fill="#000000" font-family="sans-serif" font-size="14" lengthAdjust="spacing" textLength="4" x="17" y="1376.9844">&#160;</text><text fill="#000000" font-family="sans-serif" font-size="14" font-weight="bold" lengthAdjust="spacing" textLength="90" x="21" y="1376.9844">Column Type</text><text fill="#000000" font-family="sans-serif" font-size="14" lengthAdjust="spacing" textLength="28" x="111" y="1376.9844">&#160;&#160;&#160;&#160;&#160;&#160;&#160;</text><text fill="#000000" font-family="sans-serif" font-size="14" lengthAdjust="spacing" textLength="161" x="197" y="1376.9844">Data type of each column</text><text fill="#000000" font-family="sans-serif" font-size="14" lengthAdjust="spacing" textLength="4" x="17" y="1395.6055">&#160;</text><text fill="#000000" font-family="sans-serif" font-size="14" font-weight="bold" lengthAdjust="spacing" textLength="77" x="21" y="1395.6055">Partitioned</text><text fill="#000000" font-family="sans-serif" font-size="14" lengthAdjust="spacing" textLength="28" x="98" y="1395.6055">&#160;&#160;&#160;&#160;&#160;&#160;&#160;</text><text fill="#000000" font-family="sans-serif" font-size="14" lengthAdjust="spacing" textLength="245" x="197" y="1395.6055">Indicates a partitioned column in tables</text><text fill="#000000" font-family="sans-serif" font-size="14" lengthAdjust="spacing" textLength="4" x="17" y="1414.2266">&#160;</text><text fill="#000000" font-family="sans-serif" font-size="14" font-weight="bold" lengthAdjust="spacing" textLength="90" x="21" y="1414.2266">One-to-Many</text><text fill="#000000" font-family="sans-serif" font-size="14" lengthAdjust="spacing" textLength="28" x="111" y="1414.2266">&#160;&#160;&#160;&#160;&#160;&#160;&#160;</text><text fill="#000000" font-family="sans-serif" font-size="14" lengthAdjust="spacing" textLength="281" x="197" y="1414.2266">(0..*) Represents a one-to-many relationship</text><text fill="#000000" font-family="sans-serif" font-size="14" lengthAdjust="spacing" textLength="4" x="17" y="1432.8477">&#160;</text><text fill="#000000" font-family="sans-serif" font-size="14" font-weight="bold" lengthAdjust="spacing" textLength="168" x="21" y="1432.8477">Mandatory One-to-Many</text><text fill="#000000" font-family="sans-serif" font-size="14" lengthAdjust="spacing" textLength="4" x="189" y="1432.8477">&#160;</text><text fill="#000000" font-family="sans-serif" font-size="14" lengthAdjust="spacing" textLength="743" x="197" y="1432.8477">(||--|{)  A record on the left side must have at least one corresponding record on the right (mandatory on the right side)</text><text fill="#000000" font-family="sans-serif" font-size="14" lengthAdjust="spacing" textLength="4" x="17" y="1451.4688">&#160;</text><text fill="#000000" font-family="sans-serif" font-size="14" font-weight="bold" lengthAdjust="spacing" textLength="82" x="21" y="1451.4688">One-to-One</text><text fill="#000000" font-family="sans-serif" font-size="14" lengthAdjust="spacing" textLength="32" x="103" y="1451.4688">&#160;&#160;&#160;&#160;&#160;&#160;&#160;&#160;</text><text fill="#000000" font-family="sans-serif" font-size="14" lengthAdjust="spacing" textLength="274" x="197" y="1451.4688">(1..1) Represents a one-to-one relationship</text><line style="stroke:#000000;stroke-width:1.0;" x1="17" x2="944" y1="1306.0137" y2="1306.0137"/><line style="stroke:#000000;stroke-width:1.0;" x1="17" x2="944" y1="1324.6348" y2="1324.6348"/><line style="stroke:#000000;stroke-width:1.0;" x1="17" x2="944" y1="1343.2559" y2="1343.2559"/><line style="stroke:#000000;stroke-width:1.0;" x1="17" x2="944" y1="1361.877" y2="1361.877"/><line style="stroke:#000000;stroke-width:1.0;" x1="17" x2="944" y1="1380.498" y2="1380.498"/><line style="stroke:#000000;stroke-width:1.0;" x1="17" x2="944" y1="1399.1191" y2="1399.1191"/><line style="stroke:#000000;stroke-width:1.0;" x1="17" x2="944" y1="1417.7402" y2="1417.7402"/><line style="stroke:#000000;stroke-width:1.0;" x1="17" x2="944" y1="1436.3613" y2="1436.3613"/><line style="stroke:#000000;stroke-width:1.0;" x1="17" x2="944" y1="1454.9824" y2="1454.9824"/><line style="stroke:#000000;stroke-width:1.0;" x1="17" x2="17" y1="1306.0137" y2="1454.9824"/><line style="stroke:#000000;stroke-width:1.0;" x1="193" x2="193" y1="1306.0137" y2="1454.9824"/><line style="stroke:#000000;stroke-width:1.0;" x1="944" x2="944" y1="1306.0137" y2="1454.9824"/><!--SRC=[rLPRRzf857xthpXA7nPGWiXgksfHLSa1qw9mat4gTHN9cjY36SMUyOw7LYZal-_n1JCu9W5MNMbv0UnlldE-SvkpP3u56iLg3H6D7gXC32DvP3mcaaGGCaxLEgOWf5eAGuaOb807ePI8m6UIUee9hXtmGf8ay6G0Vcw8znX8iU9-JuH2meqzdVnbkVqRU6Trp84vg4NDXwDlbfsXp46lRtLgKL-cetx1rFy3cPuDupSOqO1o7tf4-aQO_ovS3Ub28Sy6MYtBXZuZGUfiZc-ry7cV9fvaSQe6DWLo9bb4v1fkwHenZTbjCtr-nzdVAmeODgxOWb492_I74cy9Klm4ne608WyXBNa6Gb8My2tF8EUnwO9AoZsQu86uCFL8rna35sg9pFiyg7mLSN0m7yYJVz1pej1WbgD5xeQNuqePH2gM2gE-Tcp8VUOHbLlV8RQ7qOdCU5BIJ3czKk9gJFXQesbqskrM4yN4aYOOaPHEvCW8aI1fI5BcPCdYaWevVA84wjqdHRhxpVtcwkf-yuGnCl6q9wIFX83Xo988ILglqIfHi2G_A125Zmd-GwFekqGlOe7IU50vB5cmLD28IjDxprFMPbKgVfLAKz-ks-thUgcfyOfIBAoy10qZnjeb0OMBiW4kYWv9ImWRxyAnpSdSx3d3wMJkEkRDoDeY05gW9E49oJhDPNuNlfbsxwjfDpusuTEdsUtdpmMIU1usY7g96UmmEbTQD3la-qwpm8YOoanAtKkTW4IflIxqhTvmR8uQrnylFsnn3oGaMDo7NlB77Vdlx_zixalemd3Yr1Z4r26ZCnnRSySSpmg4jr9YiIXUzat7IiEoA-b2Equ8FUHchpUzcpWruJuOHYtK7XQWYAZCGEZhVf2t3Fi1lkvqAZ8rbu-9sbawUtTpPpgsx1gXDI8qYPn41vmFg9uV3ytKuYGDMABoIdgfD554hHBjOBFm_bbhcF8kg3RC09lbrpRAwna-69otg_NO1ZgcKzyij5VhwVK4dLLj8zF-Ohd_et7s7uufbhWXaG5rDQYkxCJwE3O_UZyLMrErcufPw8xDkOFjzWicOYoavwuIwfRnhXiOX6DqtaATLPVETEP-jqnxzDtTYZrBfHAAXEwnAP9P_TJNI7srrhWzdawSh-ZtYUFxpT5mcXJo8pXJzdE-czlQUeHZ7-VEobChYHldGkA2dgz6byNsVvckPZnRyetTrjIkcolFk2vgcrMxSgztjRGQXs4lQAhNPbSFjs7iRgQsVXLjAYmr3dShy-yGrKcwZgCuNjFXCNwEGcCxTzhrWoRbt3n1lOfzeV-AQ5_jbkhmQ3Z3hvg6FS6fVm00]--></g></svg>